<?xml version="1.0" standalone="no"?><svg xmlns:xlink="http://www.w3.org/1999/xlink" xmlns="http://www.w3.org/2000/svg" viewBox="0 0 1000 583.3413625681263" preserveAspectRatio="xMaxYMax slice"><g transform="scale(1.047291494736313)"><rect x="0" y="0" width="954.8571428571429" height="557" fill="#000000"/><rect x="79.57142857142857" y="0" width="79.57142857142857" height="79.57142857142857" fill="#000000"/><polygon points="119.35999999999999,0 119.35999999999999,39.79 79.57,39.79" fill="#ffae52"/><polygon points="119.36,0 159.15,0 159.15,39.79" fill="#ffae52"/><polygon points="79.57,39.79 119.35999999999999,79.58 79.57,79.58" fill="#ffae52"/><rect x="159.14285714285714" y="0" width="79.57142857142857" height="79.57142857142857" fill="#000000"/><polygon points="159.14,0 198.92999999999998,0 198.92999999999998,39.79" fill="#525252"/><polygon points="198.93,0 238.72,39.79 198.93,39.79" fill="#525252"/><polygon points="159.14,39.79 198.92999999999998,39.79 159.14,79.58" fill="#ffae52"/><rect x="238.71428571428572" y="0" width="79.57142857142857" height="79.57142857142857" fill="#000000"/><polygon points="278.5,0 318.29,0 278.5,39.79" fill="#ffae52"/><polygon points="238.71,39.79 278.5,39.79 278.5,79.58" fill="#ffae52"/><polygon points="278.5,39.79 318.29,39.79 278.5,79.58" fill="#ffae52"/><rect x="318.2857142857143" y="0" width="79.57142857142857" height="79.57142857142857" fill="#000000"/><polygon points="358.08000000000004,0 358.08000000000004,39.79 318.29,39.79" fill="#525252"/><polygon points="397.86,0 397.86,39.79 358.07,39.79" fill="#525252"/><polygon points="318.29,39.79 358.08000000000004,79.58 318.29,79.58" fill="#ffae52"/><polygon points="358.07,39.79 397.86,79.58 358.07,79.58" fill="#ffae52"/><rect x="477.42857142857144" y="0" width="79.57142857142857" height="79.57142857142857" fill="#000000"/><polygon points="517.21,0 557,39.79 517.21,39.79" fill="#ffae52"/><rect x="557" y="0" width="79.57142857142857" height="79.57142857142857" fill="#000000"/><polygon points="596.79,0 636.5799999999999,0 636.5799999999999,39.79" fill="#ffae52"/><polygon points="716.14,0 795.71,79.57 716.14,79.57" fill="#ffae52"/><rect x="795.7142857142857" y="0" width="79.57142857142857" height="79.57142857142857" fill="#000000"/><polygon points="795.71,0 835.5,39.79 795.71,39.79" fill="#525252"/><polygon points="835.5,0 875.29,0 875.29,39.79" fill="#525252"/><polygon points="875.29,0 954.8599999999999,79.57 875.29,79.57" fill="#525252"/><polygon points="0,79.57 79.57,79.57 79.57,159.14" fill="#525252"/><rect x="79.57142857142857" y="79.57142857142857" width="79.57142857142857" height="79.57142857142857" fill="#000000"/><polygon points="119.36,119.36 159.15,119.36 119.36,159.15" fill="#525252"/><polygon points="238.71,79.57 318.28,79.57 238.71,159.14" fill="#ffae52"/><polygon points="318.29,79.57 397.86,79.57 397.86,159.14" fill="#525252"/><polygon points="477.43,79.57 477.43,159.14 397.86,159.14" fill="#525252"/><polygon points="477.43,79.57 557,79.57 557,159.14" fill="#ffae52"/><polygon points="557,79.57 636.5699999999999,79.57 636.5699999999999,159.14" fill="#525252"/><polygon points="636.57,79.57 716.1400000000001,79.57 716.1400000000001,159.14" fill="#525252"/><polygon points="716.14,79.57 795.71,159.14 716.14,159.14" fill="#525252"/><polygon points="875.29,79.57 954.8599999999999,159.14 875.29,159.14" fill="#525252"/><polygon points="79.57,159.14 79.57,238.70999999999998 0,238.70999999999998" fill="#ffae52"/><rect x="79.57142857142857" y="159.14285714285714" width="79.57142857142857" height="79.57142857142857" fill="#000000"/><polygon points="119.36,159.14 159.15,198.92999999999998 119.36,198.92999999999998" fill="#525252"/><polygon points="119.35999999999999,198.93 119.35999999999999,238.72 79.57,238.72" fill="#525252"/><polygon points="119.36,198.93 159.15,198.93 159.15,238.72" fill="#525252"/><polygon points="159.14,159.14 238.70999999999998,159.14 159.14,238.70999999999998" fill="#ffae52"/><rect x="318.2857142857143" y="159.14285714285714" width="79.57142857142857" height="79.57142857142857" fill="#000000"/><polygon points="358.07,159.14 397.86,198.92999999999998 358.07,198.92999999999998" fill="#ffae52"/><polygon points="358.08000000000004,198.93 358.08000000000004,238.72 318.29,238.72" fill="#525252"/><polygon points="477.43,159.14 477.43,238.70999999999998 397.86,238.70999999999998" fill="#525252"/><rect x="477.42857142857144" y="159.14285714285714" width="79.57142857142857" height="79.57142857142857" fill="#000000"/><polygon points="477.43,159.14 517.22,159.14 477.43,198.92999999999998" fill="#525252"/><polygon points="517.21,159.14 557,198.92999999999998 517.21,198.92999999999998" fill="#ffae52"/><polygon points="517.22,198.93 517.22,238.72 477.43,238.72" fill="#ffae52"/><polygon points="557,159.14 636.5699999999999,159.14 557,238.70999999999998" fill="#ffae52"/><rect x="716.1428571428571" y="159.14285714285714" width="79.57142857142857" height="79.57142857142857" fill="#000000"/><polygon points="716.14,159.14 755.93,159.14 755.93,198.92999999999998" fill="#525252"/><polygon points="755.93,159.14 795.7199999999999,159.14 795.7199999999999,198.92999999999998" fill="#525252"/><polygon points="755.93,198.93 795.7199999999999,238.72 755.93,238.72" fill="#525252"/><polygon points="954.8599999999999,159.14 954.8599999999999,238.70999999999998 875.29,238.70999999999998" fill="#525252"/><polygon points="79.57,238.71 159.14,238.71 159.14,318.28" fill="#525252"/><rect x="397.85714285714283" y="238.71428571428572" width="79.57142857142857" height="79.57142857142857" fill="#000000"/><polygon points="397.86,238.71 437.65000000000003,238.71 437.65000000000003,278.5" fill="#ffae52"/><polygon points="437.64,238.71 477.43,238.71 437.64,278.5" fill="#525252"/><polygon points="397.86,278.5 437.65000000000003,318.29 397.86,318.29" fill="#ffae52"/><polygon points="437.64,278.5 477.43,278.5 477.43,318.29" fill="#ffae52"/><polygon points="557,238.71 557,318.28 477.43,318.28" fill="#525252"/><polygon points="557,238.71 636.5699999999999,238.71 557,318.28" fill="#ffae52"/><polygon points="636.57,238.71 716.1400000000001,238.71 636.57,318.28" fill="#ffae52"/><polygon points="716.14,238.71 795.71,238.71 795.71,318.28" fill="#ffae52"/><rect x="875.2857142857142" y="238.71428571428572" width="79.57142857142857" height="79.57142857142857" fill="#000000"/><polygon points="875.29,238.71 915.0799999999999,278.5 875.29,278.5" fill="#ffae52"/><polygon points="954.86,238.71 954.86,278.5 915.07,278.5" fill="#ffae52"/><polygon points="915.07,278.5 954.86,278.5 915.07,318.29" fill="#ffae52"/><polygon points="0,318.29 79.57,318.29 0,397.86" fill="#525252"/><rect x="79.57142857142857" y="318.2857142857143" width="79.57142857142857" height="79.57142857142857" fill="#000000"/><polygon points="79.57,318.29 119.35999999999999,318.29 119.35999999999999,358.08000000000004" fill="#ffae52"/><polygon points="119.36,318.29 159.15,358.08000000000004 119.36,358.08000000000004" fill="#ffae52"/><polygon points="79.57,358.07 119.35999999999999,358.07 119.35999999999999,397.86" fill="#525252"/><polygon points="119.36,358.07 159.15,358.07 119.36,397.86" fill="#ffae52"/><polygon points="159.14,318.29 238.70999999999998,397.86 159.14,397.86" fill="#525252"/><rect x="238.71428571428572" y="318.2857142857143" width="79.57142857142857" height="79.57142857142857" fill="#000000"/><polygon points="238.71,318.29 278.5,318.29 278.5,358.08000000000004" fill="#525252"/><polygon points="278.5,318.29 318.29,358.08000000000004 278.5,358.08000000000004" fill="#ffae52"/><polygon points="278.5,358.07 318.29,358.07 278.5,397.86" fill="#ffae52"/><rect x="397.85714285714283" y="318.2857142857143" width="79.57142857142857" height="79.57142857142857" fill="#000000"/><polygon points="477.43,318.29 477.43,358.08000000000004 437.64,358.08000000000004" fill="#525252"/><polygon points="397.86,358.07 437.65000000000003,358.07 437.65000000000003,397.86" fill="#ffae52"/><polygon points="437.64,358.07 477.43,358.07 477.43,397.86" fill="#ffae52"/><rect x="477.42857142857144" y="318.2857142857143" width="79.57142857142857" height="79.57142857142857" fill="#000000"/><polygon points="477.43,318.29 517.22,318.29 517.22,358.08000000000004" fill="#525252"/><polygon points="517.21,318.29 557,358.08000000000004 517.21,358.08000000000004" fill="#525252"/><polygon points="517.21,358.07 557,397.86 517.21,397.86" fill="#ffae52"/><polygon points="636.5699999999999,318.29 636.5699999999999,397.86 557,397.86" fill="#525252"/><polygon points="636.57,318.29 716.1400000000001,318.29 636.57,397.86" fill="#ffae52"/><polygon points="795.71,318.29 875.28,318.29 795.71,397.86" fill="#ffae52"/><rect x="875.2857142857142" y="318.2857142857143" width="79.57142857142857" height="79.57142857142857" fill="#000000"/><polygon points="875.29,318.29 915.0799999999999,358.08000000000004 875.29,358.08000000000004" fill="#525252"/><polygon points="954.86,318.29 954.86,358.08000000000004 915.07,358.08000000000004" fill="#525252"/><polygon points="915.07,358.07 954.86,397.86 915.07,397.86" fill="#525252"/><rect x="0" y="397.85714285714283" width="79.57142857142857" height="79.57142857142857" fill="#000000"/><polygon points="0,397.86 39.79,437.65000000000003 0,437.65000000000003" fill="#ffae52"/><polygon points="39.79,397.86 79.58,397.86 79.58,437.65000000000003" fill="#ffae52"/><polygon points="39.79,437.64 39.79,477.43 0,477.43" fill="#525252"/><polygon points="79.58,437.64 79.58,477.43 39.79,477.43" fill="#525252"/><rect x="79.57142857142857" y="397.85714285714283" width="79.57142857142857" height="79.57142857142857" fill="#000000"/><polygon points="79.57,397.86 119.35999999999999,397.86 119.35999999999999,437.65000000000003" fill="#ffae52"/><polygon points="119.35999999999999,437.64 119.35999999999999,477.43 79.57,477.43" fill="#525252"/><polygon points="238.71,397.86 318.28,397.86 238.71,477.43" fill="#525252"/><rect x="318.2857142857143" y="397.85714285714283" width="79.57142857142857" height="79.57142857142857" fill="#000000"/><polygon points="358.07,397.86 397.86,397.86 358.07,437.65000000000003" fill="#ffae52"/><polygon points="358.08000000000004,437.64 358.08000000000004,477.43 318.29,477.43" fill="#525252"/><polygon points="397.86,437.64 397.86,477.43 358.07,477.43" fill="#525252"/><rect x="397.85714285714283" y="397.85714285714283" width="79.57142857142857" height="79.57142857142857" fill="#000000"/><polygon points="557,397.86 636.5699999999999,397.86 557,477.43" fill="#525252"/><polygon points="636.57,397.86 716.1400000000001,397.86 636.57,477.43" fill="#525252"/><polygon points="795.71,397.86 875.28,397.86 795.71,477.43" fill="#ffae52"/><polygon points="875.29,397.86 954.8599999999999,477.43 875.29,477.43" fill="#525252"/><polygon points="0,477.43 79.57,557 0,557" fill="#ffae52"/><polygon points="79.57,477.43 159.14,477.43 159.14,557" fill="#ffae52"/><rect x="159.14285714285714" y="477.42857142857144" width="79.57142857142857" height="79.57142857142857" fill="#000000"/><polygon points="238.72,477.43 238.72,517.22 198.93,517.22" fill="#ffae52"/><polygon points="198.92999999999998,517.21 198.92999999999998,557 159.14,557" fill="#ffae52"/><polygon points="198.93,517.21 238.72,517.21 238.72,557" fill="#525252"/><polygon points="238.71,477.43 318.28,477.43 238.71,557" fill="#525252"/><rect x="318.2857142857143" y="477.42857142857144" width="79.57142857142857" height="79.57142857142857" fill="#000000"/><polygon points="318.29,477.43 358.08000000000004,477.43 358.08000000000004,517.22" fill="#525252"/><polygon points="358.07,477.43 397.86,477.43 358.07,517.22" fill="#525252"/><polygon points="477.43,477.43 477.43,557 397.86,557" fill="#525252"/><rect x="636.5714285714286" y="477.42857142857144" width="79.57142857142857" height="79.57142857142857" fill="#000000"/><polygon points="676.36,477.43 676.36,517.22 636.57,517.22" fill="#ffae52"/><polygon points="676.36,477.43 716.15,477.43 716.15,517.22" fill="#ffae52"/><polygon points="676.36,517.21 716.15,557 676.36,557" fill="#ffae52"/><polygon points="795.71,477.43 875.28,477.43 875.28,557" fill="#ffae52"/></g></svg>